<svg id="Calque_1" data-name="Calque 1" xmlns="http://www.w3.org/2000/svg" width="123" height="25.32" viewBox="0 0 123 25.32">
  <defs>
    <style>
      .cls-1 {
        fill: #fff;
      }

      .cls-2 {
        fill: #e73137;
      }
    </style>
  </defs>
  <title>logoFooter</title>
  <path class="cls-1" d="M40.54,3.38a10.36,10.36,0,0,0-3.89-.9c-1.79,0-2.68.38-2.68,1.07,0,2,8,.39,8,4.61,0,1.75-1.64,3.1-4.92,3.1A10.2,10.2,0,0,1,31.81,9.9l0.72-1.57A9,9,0,0,0,37,9.56c2,0,3-.56,3-1.4,0-2.16-8-.55-8-4.5C32,2,33.67.78,36.61,0.78a10.06,10.06,0,0,1,4.66,1.09Z"/>
  <path class="cls-1" d="M49.43,2.42a3.64,3.64,0,0,0-3.89,3.37q0,0.1,0,.21a3.58,3.58,0,0,0,3.54,3.62l0.37,0a3.61,3.61,0,1,0,0-7.2m0,8.89c-3.19,0-5.83-2.12-5.83-5.3s2.64-5.3,5.83-5.3,5.8,2.18,5.8,5.31-2.6,5.3-5.81,5.3"/>
  <path class="cls-1" d="M62.86,11.3C59.51,11.3,57,9.18,57,6S59.55,0.71,62.86.71A7.4,7.4,0,0,1,67.52,2.2l-1,1.47a5.72,5.72,0,0,0-3.61-1.23c-2.44,0-4,1.55-4,3.55s1.53,3.57,4,3.57a5.88,5.88,0,0,0,3.67-1.21l1,1.47a7.64,7.64,0,0,1-4.74,1.47"/>
  <rect class="cls-1" x="69.62" y="1.02" width="1.86" height="10.01"/>
  <polygon class="cls-1" points="74.22 11.02 74.22 1.02 83.34 1.02 83.34 2.67 76.08 2.67 76.08 5.1 81.72 5.1 81.72 6.76 76.08 6.76 76.08 9.37 83.66 9.37 83.66 11.02 74.22 11.02"/>
  <polygon class="cls-1" points="90.58 2.66 90.58 11.02 88.73 11.02 88.73 2.66 84.65 2.66 84.65 1.02 94.66 1.02 94.66 2.66 90.58 2.66"/>
  <polygon class="cls-1" points="96.15 11.02 96.15 1.02 105.27 1.02 105.27 2.67 98.01 2.67 98.01 5.1 103.65 5.1 103.65 6.76 98.01 6.76 98.01 9.37 105.59 9.37 105.59 11.02 96.15 11.02"/>
  <path class="cls-1" d="M37.53,22.87a6.94,6.94,0,0,0,2.86-.6V19.36h1.8v3.89a8.77,8.77,0,0,1-4.74,1.37c-3.35,0-5.87-2.12-5.87-5.3S34.14,14,37.45,14a7.49,7.49,0,0,1,4.66,1.48l-1,1.47A5.76,5.76,0,0,0,37.5,15.8a3.55,3.55,0,0,0-4,3.52c0,2.07,1.53,3.55,4,3.55"/>
  <polygon class="cls-1" points="44.63 24.35 44.63 14.34 53.75 14.34 53.75 15.99 46.49 15.99 46.49 18.43 52.13 18.43 52.13 20.08 46.49 20.08 46.49 22.7 54.07 22.7 54.07 24.35 44.63 24.35"/>
  <path class="cls-1" d="M57.71,24.35H55.89v-10h1.89l6.53,7.54h0C64.25,20,64.23,18.44,64.23,17V14.34H66v10H64.17l-6.5-7.54h0c0.07,1.48.07,4.07,0.07,4.91v2.61h0Z"/>
  <polygon class="cls-1" points="68.66 24.35 68.66 14.34 77.77 14.34 77.77 15.99 70.51 15.99 70.51 18.43 76.16 18.43 76.16 20.08 70.51 20.08 70.51 22.7 78.1 22.7 78.1 24.35 68.66 24.35"/>
  <path class="cls-1" d="M86.29,19a1.55,1.55,0,0,0,1.82-1.47A1.44,1.44,0,0,0,86.78,16H81.91v3h4.38ZM84.9,20.67h-3v3.68H80.06v-10h6.43a3.14,3.14,0,0,1,3.46,3.19,3.09,3.09,0,0,1-2.87,3.08l3,3.73H87.73Z"/>
  <path class="cls-1" d="M94.63,20.3h3.86l-1.92-4.06Zm-0.77,1.62-1.15,2.43h-2l4.88-10h2l4.88,10h-2l-1.15-2.43H93.86Z"/>
  <polygon class="cls-1" points="103.78 24.35 103.78 14.34 105.63 14.34 105.63 22.7 112.31 22.7 112.31 24.35 103.78 24.35"/>
  <polygon class="cls-1" points="113.56 24.35 113.56 14.34 122.68 14.34 122.68 15.99 115.42 15.99 115.42 18.43 121.07 18.43 121.07 20.08 115.42 20.08 115.42 22.7 123 22.7 123 24.35 113.56 24.35"/>
  <rect class="cls-1" width="25.32" height="25.32"/>
  <rect class="cls-2" x="0.7" y="0.7" width="23.92" height="12.2"/>
  <rect x="0.7" y="12.66" width="23.92" height="11.95"/>
  <rect class="cls-1" x="4.88" y="11.93" width="15.56" height="1.46"/>
</svg>
