<?xml version="1.0" encoding="utf-8"?>
<!-- Generator: Adobe Illustrator 21.0.0, SVG Export Plug-In . SVG Version: 6.00 Build 0)  -->
<svg version="1.1" id="Calque_1" xmlns="http://www.w3.org/2000/svg" xmlns:xlink="http://www.w3.org/1999/xlink" x="0px" y="0px"
	 viewBox="0 0 325.3 42.5" style="enable-background:new 0 0 325.3 42.5;" xml:space="preserve">
<style type="text/css">
	.st0{fill:#020203;}
	.st1{fill:none;}
	.st2{fill:#E41222;}
	.st3{fill:#FFFFFF;}
</style>
<g>
	<g>
		<g>
			<path class="st0" d="M1.6,10.9c0-4.9,3.8-8.4,8.9-8.4c3,0,5.4,1.1,7,3.1l-2.9,2.6c-1-1.2-2.3-1.9-3.8-1.9c-2.7,0-4.5,1.9-4.5,4.6
				c0,2.8,1.9,4.6,4.5,4.6c1.6,0,2.8-0.7,3.8-1.9l2.9,2.6c-1.6,2-4,3.1-7,3.1C5.3,19.3,1.6,15.9,1.6,10.9z"/>
			<path class="st0" d="M23.7,4.2c0,0.6-0.1,1.2-0.7,2.7l-1.5,3.4h-2.8l1.1-3.8c-0.8-0.4-1.4-1.2-1.4-2.3c0-1.6,1.1-2.6,2.6-2.6
				C22.5,1.6,23.7,2.7,23.7,4.2z"/>
			<path class="st0" d="M38.8,15.5V19h-13V2.8h12.7v3.5h-8.2V9h7.2v3.4h-7.2v3h8.5V15.5z"/>
			<path class="st0" d="M40.1,17.6l1.5-3.4c1.4,0.9,3.5,1.6,5.3,1.6c1.9,0,2.6-0.5,2.6-1.3c0-2.6-9.2-0.7-9.2-6.7
				c0-2.9,2.4-5.3,7.2-5.3c2.1,0,4.3,0.5,5.9,1.4L52,7.3C50.4,6.5,48.9,6,47.5,6c-1.9,0-2.6,0.6-2.6,1.5c0,2.5,9.2,0.6,9.2,6.6
				c0,2.8-2.4,5.2-7.2,5.2C44.3,19.3,41.7,18.6,40.1,17.6z"/>
			<path class="st0" d="M60,6.4h-5V2.8h14.5v3.6h-5V19H60V6.4z"/>
			<path class="st0" d="M93.8,2.8l-7,16.2h-4.5L75.4,2.8h5l4.4,10.6l4.5-10.6C89.3,2.8,93.8,2.8,93.8,2.8z"/>
			<path class="st0" d="M93.1,10.9c0-4.9,3.8-8.4,9-8.4s9,3.6,9,8.4s-3.8,8.4-9,8.4C96.9,19.3,93.1,15.8,93.1,10.9z M106.5,10.9
				c0-2.8-1.9-4.6-4.4-4.6s-4.4,1.8-4.4,4.6s1.9,4.6,4.4,4.6S106.5,13.7,106.5,10.9z"/>
			<path class="st0" d="M113.7,11.8v-9h4.6v8.8c0,2.8,1.2,3.9,3.1,3.9c1.9,0,3.1-1.1,3.1-3.9V2.8h4.5v9c0,4.8-2.8,7.5-7.6,7.5
				S113.7,16.6,113.7,11.8z"/>
			<path class="st0" d="M130.8,17.6l1.5-3.4c1.4,0.9,3.5,1.6,5.3,1.6c1.9,0,2.6-0.5,2.6-1.3c0-2.6-9.2-0.7-9.2-6.7
				c0-2.9,2.4-5.3,7.2-5.3c2.1,0,4.3,0.5,5.9,1.4l-1.4,3.4c-1.6-0.8-3.1-1.3-4.5-1.3c-1.9,0-2.6,0.6-2.6,1.5c0,2.5,9.2,0.6,9.2,6.6
				c0,2.8-2.4,5.2-7.2,5.2C135,19.3,132.4,18.6,130.8,17.6z"/>
			<path class="st0" d="M37.1,23.2h4.6v12.6h7.7v3.6H37.1V23.2z"/>
			<path class="st0" d="M53.8,24.6c0,0.6-0.1,1.2-0.7,2.7l-1.5,3.4h-2.8l1.1-3.8c-0.8-0.4-1.4-1.2-1.4-2.3c0-1.6,1.1-2.6,2.6-2.6
				C52.7,22,53.8,23,53.8,24.6z"/>
			<path class="st0" d="M65.5,36.2h-6.9l-1.3,3.1h-4.7l7.2-16.2h4.5l7.2,16.2h-4.8L65.5,36.2z M64.2,32.8l-2.1-5.2L60,32.8H64.2z"/>
			<path class="st0" d="M86.4,23.2l-6.9,16.2H75l-6.9-16.2h5l4.4,10.6L82,23.2C82,23.2,86.4,23.2,86.4,23.2z"/>
			<path class="st0" d="M101.1,35.8v3.5h-13V23.2h12.7v3.5h-8.2v2.7h7.2v3.4h-7.2v3C92.6,35.8,101.1,35.8,101.1,35.8z"/>
			<path class="st0" d="M118.9,23.2v16.2h-3.8l-7.2-8.6v8.6h-4.5V23.2h3.8l7.2,8.6v-8.6C114.4,23.2,118.9,23.2,118.9,23.2z"/>
			<path class="st0" d="M122.1,23.2h4.6v16.2h-4.6V23.2z"/>
			<path class="st0" d="M136.9,35.1h-2.5v4.3h-4.6V23.2h7.4c4.4,0,7.2,2.3,7.2,6c0,2.4-1.2,4.1-3.2,5.1l3.5,5.1h-4.9L136.9,35.1z
				 M136.9,26.8h-2.5v4.7h2.5c1.9,0,2.8-0.9,2.8-2.4C139.8,27.7,138.8,26.8,136.9,26.8z"/>
		</g>
	</g>
	<polyline class="st1" points="-11,51.9 -11,-9.7 294.6,-9.7 	"/>
</g>
<g>
	<rect x="154.2" y="8.5" class="st2" width="25.1" height="12.8"/>
	<rect x="154.2" y="21" class="st0" width="25.1" height="12.5"/>
	<rect x="158.6" y="20.2" class="st3" width="16.3" height="1.5"/>
</g>
<g>
	<g>
		<path class="st0" d="M193.5,13.4c-1-0.4-2.1-0.7-3.1-0.7c-1.4,0-2.1,0.3-2.1,0.9c0,1.6,6.3,0.3,6.3,3.6c0,1.4-1.3,2.5-3.9,2.5
			c-1.5,0-2.7-0.3-4.1-1.1l0.6-1.2c1.2,0.7,2.3,1,3.6,1c1.5,0,2.4-0.4,2.4-1.1c0-1.7-6.3-0.4-6.3-3.6c0-1.4,1.3-2.3,3.6-2.3
			c1.4,0,2.6,0.3,3.7,0.9L193.5,13.4z"/>
		<path class="st0" d="M200.6,19.7c-2.5,0-4.6-1.7-4.6-4.2c0-2.5,2.1-4.2,4.6-4.2c2.5,0,4.6,1.7,4.6,4.2
			C205.2,18,203.1,19.7,200.6,19.7z M200.6,12.7c-1.8,0-3.1,1.2-3.1,2.8c0,1.6,1.2,2.9,3.1,2.9c1.9,0,3.1-1.2,3.1-2.9
			C203.6,13.9,202.5,12.7,200.6,12.7z"/>
		<path class="st0" d="M211.3,19.7c-2.7,0-4.7-1.7-4.7-4.2c0-2.5,2-4.2,4.7-4.2c1.6,0,2.7,0.4,3.7,1.2l-0.8,1.2
			c-0.7-0.6-1.6-1-2.9-1c-1.9,0-3.1,1.2-3.1,2.8c0,1.6,1.2,2.8,3.2,2.8c1.2,0,2.2-0.4,2.9-1l0.8,1.2C214,19.3,212.8,19.7,211.3,19.7
			z"/>
		<path class="st0" d="M216.7,19.5v-7.9h1.5v7.9H216.7z"/>
		<path class="st0" d="M220.3,19.5v-7.9h7.2v1.3h-5.8v1.9h4.5v1.3h-4.5v2.1h6v1.3H220.3z"/>
		<path class="st0" d="M233.2,12.8v6.6h-1.5v-6.6h-3.2v-1.3h7.9v1.3H233.2z"/>
		<path class="st0" d="M237.7,19.5v-7.9h7.2v1.3h-5.8v1.9h4.5v1.3h-4.5v2.1h6v1.3H237.7z"/>
		<path class="st0" d="M254.3,18.3c0.8,0,1.6-0.2,2.3-0.5v-2.3h1.4v3.1c-1,0.7-2.4,1.1-3.8,1.1c-2.7,0-4.7-1.7-4.7-4.2
			c0-2.5,2-4.2,4.7-4.2c1.5,0,2.7,0.4,3.7,1.2l-0.8,1.2c-0.7-0.6-1.6-0.9-2.9-0.9c-1.9,0-3.1,1.2-3.1,2.8
			C251.2,17.1,252.4,18.3,254.3,18.3z"/>
		<path class="st0" d="M260.1,19.5v-7.9h7.2v1.3h-5.8v1.9h4.5v1.3h-4.5v2.1h6v1.3H260.1z"/>
		<path class="st0" d="M270.6,19.5h-1.4v-7.9h1.5l5.2,6l0,0c-0.1-1.5-0.1-2.7-0.1-3.9v-2.1h1.4v7.9h-1.5l-5.1-6l0,0
			c0.1,1.2,0.1,3.2,0.1,3.9V19.5z"/>
		<path class="st0" d="M279.4,19.5v-7.9h7.2v1.3h-5.8v1.9h4.5v1.3h-4.5v2.1h6v1.3H279.4z"/>
		<path class="st0" d="M292.4,16.6H290v2.9h-1.5v-7.9h5.1c1.7,0,2.7,1,2.7,2.5c0,1.4-1,2.3-2.3,2.4l2.4,3h-1.8L292.4,16.6z
			 M293.5,15.2c0.9,0,1.4-0.5,1.4-1.2c0-0.8-0.5-1.2-1.3-1.2H290v2.4H293.5z"/>
		<path class="st0" d="M299.5,17.5l-0.9,1.9H297l3.9-7.9h1.5l3.9,7.9h-1.6l-0.9-1.9H299.5z M300.1,16.3h3.1l-1.5-3.2L300.1,16.3z"/>
		<path class="st0" d="M307.4,19.5v-7.9h1.5v6.6h5.3v1.3H307.4z"/>
		<path class="st0" d="M315.2,19.5v-7.9h7.2v1.3h-5.8v1.9h4.5v1.3h-4.5v2.1h6v1.3H315.2z"/>
		<path class="st0" d="M194.1,26.4c0.7,0.4,1.1,1,1.1,1.8c0,1.3-1,2.3-2.8,2.3h-5.3v-7.9h5.2c1.5,0,2.5,0.9,2.5,2.2
			C194.9,25.5,194.6,26,194.1,26.4z M192.5,25.8c0.7,0,1-0.5,1-1c0-0.5-0.3-1-1.1-1h-3.8v2H192.5z M193.7,28.2c0-0.7-0.3-1-1.1-1
			h-3.9v2h3.8C193.3,29.2,193.7,28.8,193.7,28.2z"/>
		<path class="st0" d="M205.1,27.3c0,2-1.5,3.5-4,3.5s-4-1.5-4-3.5v-4.7h1.5v4.5c0,1.3,0.8,2.3,2.5,2.3c1.7,0,2.5-0.9,2.5-2.3v-4.5
			h1.5V27.3z"/>
		<path class="st0" d="M211.1,27.6h-2.4v2.9h-1.5v-7.9h5.1c1.7,0,2.7,1,2.7,2.5c0,1.4-1,2.3-2.3,2.4l2.4,3h-1.8L211.1,27.6z
			 M212.2,26.2c0.9,0,1.4-0.5,1.4-1.2c0-0.8-0.5-1.2-1.3-1.2h-3.6v2.4H212.2z"/>
		<path class="st0" d="M216.8,30.5v-7.9h1.5v3.7l4-3.7h1.8l-4.1,3.8l4.3,4.1h-2l-4-3.8v3.8H216.8z"/>
		<path class="st0" d="M225.5,30.5v-7.9h1.5v7.9H225.5z"/>
		<path class="st0" d="M230.5,30.5H229v-7.9h1.5l5.2,6l0,0c-0.1-1.5-0.1-2.7-0.1-3.9v-2.1h1.4v7.9h-1.5l-5.2-6l0,0
			c0.1,1.2,0.1,3.2,0.1,3.9V30.5z"/>
		<path class="st0" d="M240.7,28.6l-0.9,1.9h-1.6l3.9-7.9h1.5l3.9,7.9h-1.6l-0.9-1.9H240.7z M241.3,27.3h3.1l-1.5-3.2L241.3,27.3z"
			/>
		<path class="st0" d="M253.3,23.9V26h4.3v1.3h-4.3v3.2h-1.5v-7.9h7.1v1.3H253.3z"/>
		<path class="st0" d="M260.4,28.6l-0.9,1.9h-1.6l3.9-7.9h1.5l3.9,7.9h-1.6l-0.9-1.9H260.4z M261,27.3h3.1l-1.5-3.2L261,27.3z"/>
		<path class="st0" d="M274.3,24.4c-1-0.4-2.1-0.7-3.1-0.7c-1.4,0-2.1,0.3-2.1,0.9c0,1.6,6.3,0.3,6.3,3.6c0,1.4-1.3,2.5-3.9,2.5
			c-1.5,0-2.7-0.3-4.1-1.1l0.6-1.2c1.2,0.7,2.3,1,3.6,1c1.5,0,2.4-0.4,2.4-1.1c0-1.7-6.3-0.4-6.3-3.6c0-1.4,1.3-2.3,3.6-2.3
			c1.4,0,2.6,0.3,3.7,0.9L274.3,24.4z"/>
		<path class="st0" d="M281.3,30.7c-2.5,0-4.6-1.7-4.6-4.2c0-2.5,2.1-4.2,4.6-4.2c2.5,0,4.6,1.7,4.6,4.2
			C285.9,29,283.9,30.7,281.3,30.7z M281.3,23.7c-1.8,0-3.1,1.2-3.1,2.8c0,1.6,1.2,2.9,3.1,2.9c1.9,0,3.1-1.2,3.1-2.9
			C284.4,24.9,283.2,23.7,281.3,23.7z"/>
	</g>
</g>
</svg>
